Coordinates
version=1
nRows=17
nColumns=34
inDegrees=yes

Units are S.I. units (second, meters, Newtons, ...)
If the header above contains a line with 'inDegrees', this indicates whether rotational values are in degrees (yes) or radians (no).

endheader
time	pelvis_tilt	pelvis_list	pelvis_rotation	pelvis_tx	pelvis_ty	pelvis_tz	hip_flexion_r	hip_adduction_r	hip_rotation_r	knee_angle_r	ankle_angle_r	subtalar_angle_r	mtp_angle_r	hip_flexion_l	hip_adduction_l	hip_rotation_l	knee_angle_l	ankle_angle_l	subtalar_angle_l	mtp_angle_l	lumbar_extension	lumbar_bending	lumbar_rotation	arm_flex_r	arm_add_r	arm_rot_r	elbow_flex_r	pro_sup_r	arm_flex_l	arm_add_l	arm_rot_l	elbow_flex_l	pro_sup_l
     22.35000000	     -6.99266095	     -3.78373199	    175.69198039	      1.71387783	      0.99266046	     -0.53367235	     20.31218139	      3.73296073	      0.60469158	     42.59033758	     11.63213098	    -15.15582138	      0.00000000	     15.87601017	      2.30769191	      0.40858879	    129.34910530	    -10.90537546	     -9.99590788	      0.00000000	    -25.54766839	     -0.24649884	     -2.49905722	      2.28779641	    -19.16543102	      1.87261659	    100.99171390	    101.05335621	    -17.33219239	    -26.08675787	     25.05873254	     86.10435876	     89.41065592
     22.35833330	     -6.47716419	     -2.11468700	    174.26348873	      1.72253745	      0.99309034	     -0.53434684	     18.73600922	      5.90820323	      1.94896505	     43.72838517	     12.50137965	    -16.82039245	      0.00000000	     21.77125204	     -0.50616069	      0.60460620	    131.66545561	     -5.39131022	     -7.87199261	      0.00000000	    -26.37717370	      1.24980558	      0.54563995	      8.28104441	    -20.23697882	      4.59401008	    100.46772690	    101.04137594	    -18.09468525	    -24.27057861	     18.07973632	     84.98923479	     90.94039229
     22.36666670	     -5.89315875	     -0.44403831	    172.66594702	      1.72934578	      0.99150254	     -0.53502168	     16.75326803	      7.98092380	      3.24873102	     44.39550057	     14.94895643	    -17.37287182	      0.00000000	     27.51852072	     -3.52074780	      0.56401606	    131.94672482	     -0.12032359	     -6.11876089	      0.00000000	    -26.64796860	      2.63009352	      4.45899356	     13.17058686	    -21.52660213	      6.59648804	    100.54510254	    100.84389077	    -18.19739271	    -23.22490039	     13.48810422	     84.78571344	     91.37725373
     22.37500000	     -5.48163283	      0.66704320	    171.34690340	      1.73503585	      0.99065457	     -0.53571487	     14.24705282	      9.21662520	      4.60804179	     44.58634749	     17.06999974	    -18.09478524	      0.00000000	     33.02829254	     -5.95950431	      0.61641163	    130.93804310	      2.16209707	     -5.51502500	      0.00000000	    -26.99905030	      3.30134244	      5.79719242	     19.81521231	    -21.47057153	     11.03511959	     98.47727646	     99.77912651	    -21.17172373	    -21.06490323	      5.73617742	     87.23410071	     92.36945830
     22.38333330	     -5.29842072	      0.53656655	    170.45450539	      1.73858038	      0.99713087	     -0.53681080	     11.21781753	      8.75834734	      5.60149226	     44.03218383	     18.52069039	    -18.45674071	      0.00000000	     37.85716362	     -7.05339044	     -0.00661746	    128.49156516	      2.84900934	     -6.48055179	      0.00000000	    -27.08698631	      2.76827177	      7.79885772	     23.37101682	    -21.33125312	     13.21424467	     97.59191741	     98.70992502	    -22.41477501	    -20.57464016	      2.43022112	     88.31291173	     92.88278142
     22.39166670	     -5.13817921	     -0.14902517	    170.27598983	      1.74054812	      1.00418825	     -0.53724879	      8.15725805	      7.42861540	      5.86057596	     43.07853553	     17.86917028	    -19.25885048	      0.00000000	     41.69779154	     -7.02071006	     -1.07542462	    124.52436049	      1.31583645	     -8.82101815	      0.00000000	    -26.60423770	      1.91991340	      9.97157627	     24.81064046	    -21.45252804	     13.11320669	     97.72620488	     98.55344039	    -22.93898109	    -20.74314532	      1.20737574	     89.07233139	     92.81006754
     22.40000000	     -4.89418104	     -1.48674967	    170.77632795	      1.74133847	      1.01213213	     -0.53734043	      5.18078483	      5.33044348	      5.62437272	     41.82908139	     16.18956246	    -19.96426993	      0.00000000	     44.90178916	     -5.83059126	     -2.49570388	    119.89819965	     -1.27611545	    -12.94679702	      0.00000000	    -25.94806243	      0.56608861	     10.60577986	     25.60733102	    -21.09326751	     12.62605940	     99.10251873	     98.32229560	    -24.56310931	    -21.08537048	     -0.41826211	     89.86014971	     92.62547113
     22.40833330	     -4.36014181	     -3.43253918	    171.79032395	      1.74107049	      1.01866774	     -0.53696498	      2.42585328	      2.57247944	      4.74849287	     40.41824832	     13.70281518	    -20.06598770	      0.00000000	     47.76349428	     -3.62698288	     -4.35115442	    114.08409231	     -4.03641972	    -17.41125557	      0.00000000	    -24.64165413	     -1.23563370	     10.50698267	     25.29824062	    -20.74715537	     11.88756256	    100.40805971	     98.17352020	    -26.40715744	    -21.45795911	     -1.92580602	     90.33510430	     92.41310535
     22.41666670	     -3.59162555	     -5.40494797	    173.05619344	      1.73987289	      1.02297129	     -0.53627026	     -0.18099205	     -0.06995611	      3.55684511	     38.86261273	     11.03297297	    -19.38444563	      0.00000000	     50.21245385	     -1.25806218	     -6.19909205	    107.51567415	     -6.52660005	    -21.77618957	      0.00000000	    -23.00483172	     -2.96537921	     10.11446207	     23.94623177	    -20.54265741	     11.05069572	    101.96235519	     98.14677780	    -28.66132184	    -21.94767128	     -3.37741008	     90.84615044	     92.21231415
     22.42500000	     -2.82966773	     -7.07645024	    174.37046676	      1.73845320	      1.03401469	     -0.53518015	     -3.19875933	     -2.36339395	      2.08397928	     36.43171585	      8.38443826	    -17.57446224	      0.00000000	     51.71766482	      0.91062826	     -7.98569406	     99.23819516	     -9.46250912	    -24.90790128	      0.00000000	    -21.43848513	     -4.31902370	      9.77090392	     21.65485956	    -20.58518912	     10.36327218	    104.08486712	     98.25176973	    -30.48629825	    -22.15116569	     -4.51392358	     90.48712084	     92.03663327
     22.43333330	     -2.19140558	     -7.85476966	    175.23223374	      1.73650378	      1.03787082	     -0.53419536	     -6.14845019	     -3.67742050	      0.99146105	     34.48362494	      5.02737633	    -15.23298422	      0.00000000	     52.62692690	      2.05711566	     -9.17723393	     90.76722128	    -14.15849384	    -26.93701428	      0.00000000	    -20.03944765	     -4.74048977	     10.31360962	     18.66602251	    -21.24543125	     10.09623994	    107.28536510	     98.54942990	    -32.60867071	    -22.37270490	     -5.54024545	     90.72783781	     91.92421793
     22.44166670	     -1.52172140	     -7.76380106	    175.87814563	      1.73426395	      1.04480908	     -0.53320954	     -9.15162727	     -4.07313999	     -0.12587382	     32.25980961	      0.89683778	    -12.82312582	      0.00000000	     51.76864495	      2.69888729	     -9.86615181	     79.92801857	    -15.67048360	    -30.55293607	      0.00000000	    -18.73999136	     -4.39471100	     11.45066365	     15.29834934	    -22.31305399	     10.29355924	    111.46167177	     98.96651997	    -34.75785401	    -22.43033801	     -6.41428479	     91.09802926	     91.88597342
     22.45000000	     -1.68749260	     -7.49780933	    176.00800297	      1.73293666	      1.04775836	     -0.53334647	    -12.85639074	     -4.23536556	     -0.35145252	     30.08377657	     -1.50030452	    -10.53330161	      0.00000000	     51.09462007	      2.52184491	    -10.40387406	     71.39348014	    -15.58557687	    -31.65994639	      0.00000000	    -18.52560273	     -4.11542806	     13.52660609	     12.01103048	    -23.76330933	     10.34980104	    116.01749877	     99.83200803	    -36.11164810	    -23.04814690	     -6.84523830	     92.00877626	     91.89652299
     22.45833330	     -1.23779069	     -7.04711064	    175.92400121	      1.73191712	      1.05388500	     -0.53420644	    -15.49820445	     -4.12801276	     -0.13061431	     28.28244189	     -4.75578116	     -9.04449209	      0.00000000	     50.91258085	      2.02216782	    -10.63531973	     63.25758866	    -15.36967016	    -31.40771965	      0.00000000	    -17.37387842	     -3.56056020	     15.16734616	     10.41623199	    -25.18585393	     12.90992848	    120.00839795	    100.16449335	    -37.68631901	    -23.44966054	     -7.65334948	     92.30363848	     91.79697410
     22.46666670	     -1.61030565	     -5.00283996	    175.70393914	      1.73142147	      1.05244593	     -0.53446252	    -18.02568669	     -2.40964507	      1.04492812	     28.54313433	     -6.72240972	     -8.24987997	      0.00000000	     50.26551118	      0.32539657	     -9.49761439	     56.89571868	    -15.92123826	    -30.08358449	      0.00000000	    -17.74069452	     -1.32773813	     17.28665832	     10.10926247	    -27.40389618	     15.25141050	    124.53974441	    100.51417012	    -39.13297022	    -23.56729174	     -8.46953374	     93.50683712	     91.66099213
     22.47500000	     -1.83053487	     -3.14943365	    175.15741519	      1.72975386	      1.05575676	     -0.53571577	    -20.24476603	     -0.98282210	      3.10562729	     28.82240299	    -10.09148014	     -9.06687507	      0.00000000	     48.99607138	     -1.42618877	     -8.92987333	     50.06858667	    -18.35907303	    -27.22894287	      0.00000000	    -17.71688440	      0.58414081	     19.50407510	     10.41352828	    -29.33086999	     17.30622341	    127.28272919	    100.82955071	    -40.47687045	    -23.96673292	     -9.51440468	     94.82672759	     91.42883791
     22.48333330	     -1.98132301	     -1.16322578	    174.45242138	      1.72747611	      1.06541732	     -0.53695975	    -22.40459168	      0.68864299	      6.10523131	     28.82698841	    -11.54970245	    -10.73784937	      0.00000000	     47.31244524	     -3.35263641	     -8.53962265	     42.74657137	    -20.96560616	    -23.37948942	      0.00000000	    -17.84171066	      2.72916788	     21.50515404	     11.42461719	    -30.83426159	     18.99251313	    128.22712840	    101.04710010	    -41.20749828	    -23.83706578	    -10.32885780	     95.27924990	     91.04162558
